<?xml version="1.0" encoding="UTF-8"?>
<svg xmlns="http://www.w3.org/2000/svg" version="1.1" viewBox="0 0 460.8 259.2">
  <!-- Generator: Adobe Illustrator 29.2.1, SVG Export Plug-In . SVG Version: 2.1.0 Build 116)  -->
  <defs>
    <style>
      .st0 {
        fill: #ff5f6d;
      }

      .st1 {
        fill: none;
        stroke: #ff5f6d;
        stroke-miterlimit: 10;
        stroke-width: 4px;
      }

      .st2 {
        display: none;
      }

      .st3 {
        fill: #ffcccd;
      }
    </style>
  </defs>
  <g id="Calque_2" class="st2">
    <polygon class="st3" points="54 56.4 51.7 56.7 49.3 55.8 46.9 56.4 44.5 56.1 42.1 56 39.7 56.7 37.3 56.4 34.9 56 32.5 56.4 30.2 56.8 27.8 56.3 25.4 56.6 23 56.2 20.6 56.1 18.2 56.8 15.8 56.3 13.4 56.2 11 56.6 8.6 56.7 6.5 55.7 6.1 53.5 5.5 51.1 6 48.7 5.4 46.3 5.6 44 5.8 41.6 5.8 39.2 5.9 36.8 6.2 34.4 6.1 32 6.3 29.6 6.3 27.2 5.4 24.8 5.8 22.5 6 20.1 6.1 17.7 5.8 15.3 5.8 12.9 6.3 10.5 5.7 8.1 6.7 6.2 8.6 5.3 11 5.7 13.4 5.4 15.8 5.2 18.2 5.8 20.6 5.5 23 5.4 25.3 5.4 27.7 5.6 30.1 5.1 32.5 5.7 34.9 5.2 37.3 4.9 39.7 5.1 42.1 5.7 44.5 5.8 46.8 4.9 49.2 5.8 51.6 5.1 54 5.2 55.8 6.4 56.7 8.1 56.9 10.5 56.8 12.9 56.5 15.3 57.2 17.6 56.9 20 57.1 22.4 57 24.8 57.2 27.2 57 29.6 56.6 32 56.8 34.4 56.9 36.8 56.3 39.1 56.4 41.5 56.7 43.9 56.5 46.3 57.3 48.7 57 51.1 56.9 53.5 55.9 55.4 54 56.4"/>
    <polygon class="st1" points="54 56.4 51.7 56.7 49.3 55.8 46.9 56.4 44.5 56.1 42.1 56 39.7 56.7 37.3 56.4 34.9 56 32.5 56.4 30.2 56.8 27.8 56.3 25.4 56.6 23 56.2 20.6 56.1 18.2 56.8 15.8 56.3 13.4 56.2 11 56.6 8.6 56.7 6.5 55.7 6.1 53.5 5.5 51.1 6 48.7 5.4 46.3 5.6 44 5.8 41.6 5.8 39.2 5.9 36.8 6.2 34.4 6.1 32 6.3 29.6 6.3 27.2 5.4 24.8 5.8 22.5 6 20.1 6.1 17.7 5.8 15.3 5.8 12.9 6.3 10.5 5.7 8.1 6.7 6.2 8.6 5.3 11 5.7 13.4 5.4 15.8 5.2 18.2 5.8 20.6 5.5 23 5.4 25.3 5.4 27.7 5.6 30.1 5.1 32.5 5.7 34.9 5.2 37.3 4.9 39.7 5.1 42.1 5.7 44.5 5.8 46.8 4.9 49.2 5.8 51.6 5.1 54 5.2 55.8 6.4 56.7 8.1 56.9 10.5 56.8 12.9 56.5 15.3 57.2 17.6 56.9 20 57.1 22.4 57 24.8 57.2 27.2 57 29.6 56.6 32 56.8 34.4 56.9 36.8 56.3 39.1 56.4 41.5 56.7 43.9 56.5 46.3 57.3 48.7 57 51.1 56.9 53.5 55.9 55.4 54 56.4"/>
  </g>
  <g id="Calque_3">
    <rect class="st0" x="4" y="3.5" width="54.4" height="54.4" rx="3.5" ry="3.5"/>
  </g>
</svg>