<?xml version="1.0" encoding="UTF-8"?>
<svg xmlns="http://www.w3.org/2000/svg" version="1.1" viewBox="0 0 460.8 259.2">
  <!-- Generator: Adobe Illustrator 29.2.1, SVG Export Plug-In . SVG Version: 2.1.0 Build 116)  -->
  <defs>
    <style>
      .st0 {
        fill: #ffce58;
      }

      .st1 {
        fill: #fff;
        font-family: MyriadPro-Regular, 'Myriad Pro';
        font-size: 12px;
      }

      .st2 {
        fill: none;
        stroke: #ffce58;
        stroke-miterlimit: 10;
        stroke-width: 4px;
      }

      .st3 {
        display: none;
      }

      .st4 {
        fill: #fff09f;
      }
    </style>
  </defs>
  <g id="Calque_2" class="st3">
    <polygon class="st4" points="65.9 55.7 68.2 56.5 70.6 56.2 72.9 56.4 75.2 56.2 77.6 56.4 79.9 55.8 82.3 55.9 84.6 56.3 87 56.2 89.3 55.9 91.7 55.9 94 56.2 96.4 56.2 98.7 56.5 101.1 55.7 103.4 56.3 105.8 56.5 108.1 56 110.5 56.4 112.8 55.9 113.9 54.5 114.2 52.1 114.5 49.7 114.2 47.4 114.2 45 113.9 42.6 114.4 40.3 114.3 37.9 113.5 35.5 114.3 33.2 114.2 30.8 114.3 28.4 114.2 26.1 113.9 23.7 114.1 21.3 113.9 19 114 16.6 113.4 14.2 114.3 11.8 113.8 9.5 113.6 7.1 112.4 5.9 109.9 5.4 107.5 5.5 105 5.5 102.6 5.4 100.1 5.8 98.4 7.1 98.3 9.6 98.4 12.2 99 14.8 98.6 17.3 97.3 18.8 94.9 19.4 92.4 18.7 90.1 19.5 87.6 19.4 86.5 20.8 85.9 23 85.9 25.2 86.3 27.5 86.3 29.7 84.8 31 82.6 31.6 80.2 31.1 78 31.9 75.9 31.9 74.8 33.7 74.8 35.7 74.4 38 74.7 40.2 74.9 42.5 73.3 44.4 70.8 44.3 68.3 44.4 65.9 43.6 64.7 45.7 64.3 47.9 64.2 50.1 64.7 52.3 64.1 54.5 65.9 55.7"/>
    <polygon class="st2" points="65.9 55.7 68.2 56.5 70.6 56.2 72.9 56.4 75.2 56.2 77.6 56.4 79.9 55.8 82.3 55.9 84.6 56.3 87 56.2 89.3 55.9 91.7 55.9 94 56.2 96.4 56.2 98.7 56.5 101.1 55.7 103.4 56.3 105.8 56.5 108.1 56 110.5 56.4 112.8 55.9 113.9 54.5 114.2 52.1 114.5 49.7 114.2 47.4 114.2 45 113.9 42.6 114.4 40.3 114.3 37.9 113.5 35.5 114.3 33.2 114.2 30.8 114.3 28.4 114.2 26.1 113.9 23.7 114.1 21.3 113.9 19 114 16.6 113.4 14.2 114.3 11.8 113.8 9.5 113.6 7.1 112.4 5.9 109.9 5.4 107.5 5.5 105 5.5 102.6 5.4 100.1 5.8 98.4 7.1 98.3 9.6 98.4 12.2 99 14.8 98.6 17.3 97.3 18.8 94.9 19.4 92.4 18.7 90.1 19.5 87.6 19.4 86.5 20.8 85.9 23 85.9 25.2 86.3 27.5 86.3 29.7 84.8 31 82.6 31.6 80.2 31.1 78 31.9 75.9 31.9 74.8 33.7 74.8 35.7 74.4 38 74.7 40.2 74.9 42.5 73.3 44.4 70.8 44.3 68.3 44.4 65.9 43.6 64.7 45.7 64.3 47.9 64.2 50.1 64.7 52.3 64.1 54.5 65.9 55.7"/>
    <text class="st1" transform="translate(115.6 59)"><tspan x="0" y="0">s</tspan></text>
  </g>
  <g id="Calque_3" class="st3">
    <circle class="st0" cx="87.8" cy="30.5" r="26.7"/>
  </g>
  <g id="Calque_4">
    <path class="st0" d="M65.9,55.7h46.2c1,0,1.8-.8,1.8-1.8V7.1c0-1-.8-1.8-1.8-1.8h-11.4c-1,0-1.8.8-1.8,1.8v10.3c0,1-.8,1.8-1.8,1.8h-9c-1,0-1.8.8-1.8,1.8v8.2c0,1-.8,1.8-1.8,1.8h-7.7c-1,0-1.8.8-1.8,1.8v9.5c0,1-.8,1.8-1.8,1.8h-7.7c-1,0-1.8.8-1.8,1.8v8.1c0,1,.8,1.8,1.8,1.8h0Z"/>
  </g>
</svg>