<?xml version="1.0" encoding="UTF-8"?>
<svg id="Calque_2" data-name="Calque 2" xmlns="http://www.w3.org/2000/svg" viewBox="0 0 460.8 259.2">
  <defs>
    <style>
      .cls-1 {
        fill: #ccedff;
      }

      .cls-2 {
        fill: none;
        stroke: #4ac4ff;
        stroke-miterlimit: 10;
        stroke-width: 4px;
      }
    </style>
  </defs>
  <polygon class="cls-1" points="235.48 59.21 233.06 58.3 230.64 58.46 228.21 58.56 225.79 58.37 223.36 59.14 220.94 58.4 218.51 58.44 216.08 58.29 213.66 58.52 211.23 58.44 208.8 59.23 206.37 59.16 203.94 58.78 201.52 58.54 199.09 59.18 196.66 59.12 194.23 59.17 191.8 59.16 189.37 58.63 186.93 58.91 185.28 58.02 184.95 56.37 184.54 54.01 184.09 51.64 184.62 49.28 184.52 46.91 184.29 44.55 184.47 42.18 184.48 39.81 184.26 37.44 184.09 35.07 184.95 32.71 184.73 30.34 184.98 27.97 184.91 25.6 184.96 23.23 184.72 20.86 184.73 18.49 184.85 16.12 184.27 13.75 184.39 11.37 184.92 9 185.38 7.44 186.93 6.13 189.35 6.38 191.78 6.68 194.2 6.93 196.63 6.84 199.05 6.53 201.48 6.91 203.9 7 206.33 6.78 208.76 6.71 211.19 6.81 213.61 7.01 216.04 6.84 218.47 6.17 220.89 6.46 223.32 6.44 225.75 6.14 228.18 6.3 230.61 6.3 233.05 6.28 235.48 6.91 236.91 7.57 237.64 9 238.26 11.36 237.96 13.73 238.03 16.09 237.79 18.46 237.76 20.82 237.53 23.19 238.31 25.56 237.87 27.93 238.36 30.29 237.89 32.66 237.68 35.03 238.06 37.4 237.93 39.77 237.84 42.14 237.99 44.5 237.66 46.88 237.59 49.25 237.41 51.62 237.76 54 237.84 56.37 237.3 58.19 235.48 59.21"/>
  <polygon class="cls-2" points="235.48 59.21 233.06 58.3 230.64 58.46 228.21 58.56 225.79 58.37 223.36 59.14 220.94 58.4 218.51 58.44 216.08 58.29 213.66 58.52 211.23 58.44 208.8 59.23 206.37 59.16 203.94 58.78 201.52 58.54 199.09 59.18 196.66 59.12 194.23 59.17 191.8 59.16 189.37 58.63 186.93 58.91 185.28 58.02 184.95 56.37 184.54 54.01 184.09 51.64 184.62 49.28 184.52 46.91 184.29 44.55 184.47 42.18 184.48 39.81 184.26 37.44 184.09 35.07 184.95 32.71 184.73 30.34 184.98 27.97 184.91 25.6 184.96 23.23 184.72 20.86 184.73 18.49 184.85 16.12 184.27 13.75 184.39 11.37 184.92 9 185.38 7.44 186.93 6.13 189.35 6.38 191.78 6.68 194.2 6.93 196.63 6.84 199.05 6.53 201.48 6.91 203.9 7 206.33 6.78 208.76 6.71 211.19 6.81 213.61 7.01 216.04 6.84 218.47 6.17 220.89 6.46 223.32 6.44 225.75 6.14 228.18 6.3 230.61 6.3 233.05 6.28 235.48 6.91 236.91 7.57 237.64 9 238.26 11.36 237.96 13.73 238.03 16.09 237.79 18.46 237.76 20.82 237.53 23.19 238.31 25.56 237.87 27.93 238.36 30.29 237.89 32.66 237.68 35.03 238.06 37.4 237.93 39.77 237.84 42.14 237.99 44.5 237.66 46.88 237.59 49.25 237.41 51.62 237.76 54 237.84 56.37 237.3 58.19 235.48 59.21"/>
</svg>