<?xml version="1.0" encoding="UTF-8"?>
<svg id="Calque_2" data-name="Calque 2" xmlns="http://www.w3.org/2000/svg" viewBox="0 0 460.8 259.2">
  <defs>
    <style>
      .cls-1 {
        fill: none;
        stroke: #ffce58;
        stroke-miterlimit: 10;
        stroke-width: 4px;
      }

      .cls-2 {
        fill: #fff09f;
      }
    </style>
  </defs>
  <polygon class="cls-2" points="65.86 55.66 68.2 56.47 70.55 56.19 72.89 56.41 75.24 56.25 77.58 56.42 79.93 55.83 82.28 55.92 84.63 56.29 86.97 56.22 89.32 55.88 91.67 55.91 94.02 56.15 96.37 56.16 98.72 56.53 101.06 55.71 103.41 56.35 105.77 56.48 108.12 55.96 110.47 56.37 112.83 55.91 113.87 54.47 114.17 52.11 114.48 49.74 114.18 47.37 114.15 45.01 113.92 42.64 114.4 40.27 114.31 37.91 113.53 35.54 114.31 33.17 114.25 30.8 114.29 28.43 114.2 26.06 113.89 23.69 114.1 21.33 113.91 18.96 114.01 16.59 113.44 14.22 114.26 11.84 113.8 9.47 113.57 7.1 112.38 5.95 109.93 5.36 107.48 5.49 105.02 5.52 102.57 5.38 100.11 5.77 98.36 7.08 98.31 9.64 98.37 12.2 98.96 14.77 98.62 17.33 97.3 18.81 94.89 19.41 92.45 18.68 90.05 19.55 87.62 19.37 86.46 20.84 85.94 23.04 85.91 25.25 86.28 27.46 86.3 29.67 84.84 31.01 82.56 31.62 80.24 31.13 77.96 31.89 75.92 31.92 74.77 33.69 74.79 35.71 74.39 37.97 74.71 40.22 74.86 42.48 73.27 44.42 70.81 44.34 68.34 44.41 65.87 43.59 64.72 45.7 64.34 47.89 64.18 50.09 64.71 52.29 64.1 54.49 65.86 55.66"/>
  <polygon class="cls-1" points="65.86 55.66 68.2 56.47 70.55 56.19 72.89 56.41 75.24 56.25 77.58 56.42 79.93 55.83 82.28 55.92 84.63 56.29 86.97 56.22 89.32 55.88 91.67 55.91 94.02 56.15 96.37 56.16 98.72 56.53 101.06 55.71 103.41 56.35 105.77 56.48 108.12 55.96 110.47 56.37 112.83 55.91 113.87 54.47 114.17 52.11 114.48 49.74 114.18 47.37 114.15 45.01 113.92 42.64 114.4 40.27 114.31 37.91 113.53 35.54 114.31 33.17 114.25 30.8 114.29 28.43 114.2 26.06 113.89 23.69 114.1 21.33 113.91 18.96 114.01 16.59 113.44 14.22 114.26 11.84 113.8 9.47 113.57 7.1 112.38 5.95 109.93 5.36 107.48 5.49 105.02 5.52 102.57 5.38 100.11 5.77 98.36 7.08 98.31 9.64 98.37 12.2 98.96 14.77 98.62 17.33 97.3 18.81 94.89 19.41 92.45 18.68 90.05 19.55 87.62 19.37 86.46 20.84 85.94 23.04 85.91 25.25 86.28 27.46 86.3 29.67 84.84 31.01 82.56 31.62 80.24 31.13 77.96 31.89 75.92 31.92 74.77 33.69 74.79 35.71 74.39 37.97 74.71 40.22 74.86 42.48 73.27 44.42 70.81 44.34 68.34 44.41 65.87 43.59 64.72 45.7 64.34 47.89 64.18 50.09 64.71 52.29 64.1 54.49 65.86 55.66"/>
</svg>