<?xml version="1.0" encoding="UTF-8"?>
<svg id="Calque_2" data-name="Calque 2" xmlns="http://www.w3.org/2000/svg" viewBox="0 0 460.8 259.2">
  <defs>
    <style>
      .cls-1 {
        fill: #ccffce;
      }

      .cls-2 {
        fill: none;
        stroke: #00e93b;
        stroke-miterlimit: 10;
        stroke-width: 4px;
      }
    </style>
  </defs>
  <polygon class="cls-1" points="171.26 59.21 168.84 58.4 166.42 58.67 164.01 58.46 161.59 58.61 159.17 58.45 156.75 59.03 154.33 58.94 151.91 58.58 149.49 58.65 147.08 58.99 144.65 58.96 142.23 58.71 139.82 58.71 137.4 58.33 134.98 59.16 132.55 58.52 130.13 58.39 127.7 58.91 125.28 58.5 122.96 57.99 121.87 55.67 122.2 53.26 122.53 50.84 122.25 48.42 122.24 46.01 122.04 43.59 122.54 41.17 122.47 38.75 121.71 36.33 122.51 33.91 122.48 31.49 122.55 29.07 122.48 26.65 122.19 24.24 122.43 21.82 122.26 19.39 122.38 16.97 121.83 14.55 122.67 12.12 122.23 9.7 122.98 7.4 125.28 6.16 127.69 6.74 130.11 6.61 132.53 6.58 134.94 6.72 137.36 6.33 139.78 7.01 142.2 7.02 144.62 6.94 147.04 6.31 149.46 6.62 151.88 6.74 154.3 6.22 156.71 7.02 159.13 6.23 161.56 6.48 163.98 6.44 166.4 6.94 168.83 6.94 171.26 6.54 173.52 7.43 174.08 9.7 174.64 12.11 174.08 14.53 174.79 16.94 174.07 19.36 174.2 21.78 174.61 24.2 174.16 26.62 174.44 29.04 174.55 31.46 174.61 33.88 174.56 36.3 174.65 38.72 173.85 41.13 174.56 43.55 174.18 45.97 174.02 48.4 174.55 50.82 173.94 53.25 174.63 55.67 173.76 58.18 171.26 59.21"/>
  <polygon class="cls-2" points="171.26 59.21 168.84 58.4 166.42 58.67 164.01 58.46 161.59 58.61 159.17 58.45 156.75 59.03 154.33 58.94 151.91 58.58 149.49 58.65 147.08 58.99 144.65 58.96 142.23 58.71 139.82 58.71 137.4 58.33 134.98 59.16 132.55 58.52 130.13 58.39 127.7 58.91 125.28 58.5 122.96 57.99 121.87 55.67 122.2 53.26 122.53 50.84 122.25 48.42 122.24 46.01 122.04 43.59 122.54 41.17 122.47 38.75 121.71 36.33 122.51 33.91 122.48 31.49 122.55 29.07 122.48 26.65 122.19 24.24 122.43 21.82 122.26 19.39 122.38 16.97 121.83 14.55 122.67 12.12 122.23 9.7 122.98 7.4 125.28 6.16 127.69 6.74 130.11 6.61 132.53 6.58 134.94 6.72 137.36 6.33 139.78 7.01 142.2 7.02 144.62 6.94 147.04 6.31 149.46 6.62 151.88 6.74 154.3 6.22 156.71 7.02 159.13 6.23 161.56 6.48 163.98 6.44 166.4 6.94 168.83 6.94 171.26 6.54 173.52 7.43 174.08 9.7 174.64 12.11 174.08 14.53 174.79 16.94 174.07 19.36 174.2 21.78 174.61 24.2 174.16 26.62 174.44 29.04 174.55 31.46 174.61 33.88 174.56 36.3 174.65 38.72 173.85 41.13 174.56 43.55 174.18 45.97 174.02 48.4 174.55 50.82 173.94 53.25 174.63 55.67 173.76 58.18 171.26 59.21"/>
</svg>