<?xml version="1.0" encoding="UTF-8"?>
<svg id="Calque_2" data-name="Calque 2" xmlns="http://www.w3.org/2000/svg" viewBox="0 0 460.8 259.2">
  <defs>
    <style>
      .cls-1 {
        fill: none;
        stroke: #ff5f6d;
        stroke-miterlimit: 10;
        stroke-width: 4px;
      }

      .cls-2 {
        fill: #ffcccd;
      }
    </style>
  </defs>
  <polygon class="cls-2" points="54.04 56.36 51.65 56.73 49.26 55.84 46.88 56.37 44.49 56.09 42.1 56.05 39.71 56.66 37.33 56.44 34.94 55.97 32.55 56.36 30.16 56.76 27.77 56.29 25.38 56.6 22.99 56.15 20.6 56.1 18.21 56.77 15.82 56.35 13.42 56.21 11.03 56.63 8.63 56.69 6.49 55.65 6.1 53.5 5.46 51.12 6.02 48.73 5.44 46.34 5.61 43.96 5.79 41.57 5.82 39.18 5.9 36.79 6.21 34.4 6.07 32.01 6.33 29.62 6.32 27.23 5.4 24.84 5.76 22.46 5.99 20.07 6.14 17.67 5.8 15.28 5.81 12.89 6.35 10.49 5.69 8.1 6.72 6.19 8.63 5.3 11.02 5.72 13.4 5.44 15.79 5.19 18.18 5.79 20.57 5.51 22.95 5.44 25.34 5.42 27.73 5.56 30.12 5.12 32.51 5.72 34.9 5.18 37.29 4.94 39.68 5.14 42.07 5.65 44.46 5.8 46.85 4.91 49.24 5.75 51.64 5.14 54.04 5.25 55.77 6.36 56.65 8.1 56.93 10.48 56.77 12.87 56.48 15.26 57.23 17.64 56.9 20.03 57.12 22.42 57.03 24.81 57.17 27.2 56.95 29.59 56.56 31.98 56.77 34.37 56.93 36.76 56.35 39.14 56.38 41.53 56.72 43.93 56.49 46.32 57.3 48.71 56.99 51.11 56.93 53.5 55.91 55.37 54.04 56.36"/>
  <polygon class="cls-1" points="54.04 56.36 51.65 56.73 49.26 55.84 46.88 56.37 44.49 56.09 42.1 56.05 39.71 56.66 37.33 56.44 34.94 55.97 32.55 56.36 30.16 56.76 27.77 56.29 25.38 56.6 22.99 56.15 20.6 56.1 18.21 56.77 15.82 56.35 13.42 56.21 11.03 56.63 8.63 56.69 6.49 55.65 6.1 53.5 5.46 51.12 6.02 48.73 5.44 46.34 5.61 43.96 5.79 41.57 5.82 39.18 5.9 36.79 6.21 34.4 6.07 32.01 6.33 29.62 6.32 27.23 5.4 24.84 5.76 22.46 5.99 20.07 6.14 17.67 5.8 15.28 5.81 12.89 6.35 10.49 5.69 8.1 6.72 6.19 8.63 5.3 11.02 5.72 13.4 5.44 15.79 5.19 18.18 5.79 20.57 5.51 22.95 5.44 25.34 5.42 27.73 5.56 30.12 5.12 32.51 5.72 34.9 5.18 37.29 4.94 39.68 5.14 42.07 5.65 44.46 5.8 46.85 4.91 49.24 5.75 51.64 5.14 54.04 5.25 55.77 6.36 56.65 8.1 56.93 10.48 56.77 12.87 56.48 15.26 57.23 17.64 56.9 20.03 57.12 22.42 57.03 24.81 57.17 27.2 56.95 29.59 56.56 31.98 56.77 34.37 56.93 36.76 56.35 39.14 56.38 41.53 56.72 43.93 56.49 46.32 57.3 48.71 56.99 51.11 56.93 53.5 55.91 55.37 54.04 56.36"/>
</svg>