<?xml version="1.0" encoding="UTF-8"?>
<svg id="Calque_2" data-name="Calque 2" xmlns="http://www.w3.org/2000/svg" viewBox="0 0 460.8 259.2">
  <defs>
    <style>
      .cls-1 {
        fill: none;
        stroke: #ffce58;
        stroke-miterlimit: 10;
        stroke-width: 4px;
      }

      .cls-2 {
        fill: #fff09f;
      }
    </style>
  </defs>
  <polygon class="cls-2" points="56.3 91.1 55.77 96.68 53.92 101.98 51.57 107.24 46.93 110.67 42.24 113.75 36.89 115.43 31.33 116.22 25.76 115.53 20.05 114.53 15.88 110.48 11.27 107.1 8.18 102.25 6.11 96.86 5.72 91.1 5.69 85.25 8.17 79.95 11.63 75.38 15.02 70.64 20.61 68.83 25.46 65.37 31.33 66.54 36.87 66.84 42.22 68.5 46.74 71.78 51.86 74.73 53.65 80.35 55.56 85.57 56.3 91.1"/>
  <polygon class="cls-1" points="56.3 91.1 55.77 96.68 53.92 101.98 51.57 107.24 46.93 110.67 42.24 113.75 36.89 115.43 31.33 116.22 25.76 115.53 20.05 114.53 15.88 110.48 11.27 107.1 8.18 102.25 6.11 96.86 5.72 91.1 5.69 85.25 8.17 79.95 11.63 75.38 15.02 70.64 20.61 68.83 25.46 65.37 31.33 66.54 36.87 66.84 42.22 68.5 46.74 71.78 51.86 74.73 53.65 80.35 55.56 85.57 56.3 91.1"/>
</svg>