<?xml version="1.0" encoding="UTF-8"?>
<svg id="Calque_2" data-name="Calque 2" xmlns="http://www.w3.org/2000/svg" viewBox="0 0 460.8 259.2">
  <defs>
    <style>
      .cls-1 {
        fill: #cdcbcf;
      }

      .cls-2 {
        fill: none;
        stroke: #a1a0a0;
        stroke-miterlimit: 10;
        stroke-width: 4px;
      }
    </style>
  </defs>
  <path class="cls-1" d="M114.21,116.8c-1.4,0-1.4-.16-2.79-.16s-1.4.4-2.8.4-1.4-.75-2.79-.75-1.4.3-2.8.3-1.4.17-2.8.17-1.4-.45-2.8-.45-1.4-.21-2.8-.21-1.4.17-2.8.17-1.4-.12-2.8-.12-1.4.25-2.8.25-1.4.46-2.8.46-1.4-.5-2.8-.5-1.4-.25-2.8-.25-1.4.59-2.8.59-1.4.25-2.8.25-1.4-.31-2.8-.31c-.85,0-1.94-.1-2.5-.66s-1.01-1.65-1.01-2.5c0-1.4.9-1.4.9-2.79s-.25-1.4-.25-2.8-.62-1.4-.62-2.79.63-1.4.63-2.8-.39-1.4-.39-2.8.05-1.4.05-2.8-.16-1.4-.16-2.8.12-1.4.12-2.8-.12-1.4-.12-2.8-.15-1.4-.15-2.8.24-1.4.24-2.8,0-1.4,0-2.8.48-1.4.48-2.8.15-1.4.15-2.8-.22-1.4-.22-2.8-.06-1.4-.06-2.8c0-.85.22-1.58.78-2.14s1.29-.66,2.14-.66c1.4,0,1.4.1,2.79.1s1.4.09,2.8.09,1.4-.89,2.79-.89,1.4.29,2.8.29,1.4.32,2.8.32,1.4.28,2.8.28,1.4-.75,2.8-.75,1.4.14,2.8.14,1.4-.19,2.8-.19,1.4.22,2.8.22,1.4.21,2.8.21,1.4-.11,2.8-.11,1.4-.28,2.8-.28,1.4.03,2.8.03,1.4.4,2.8.4,1.4.02,2.8.02c.85,0,1.85-.03,2.41.53s.19,1.56.19,2.41c0,1.4.18,1.4.18,2.79s.39,1.4.39,2.8.37,1.4.37,2.79-.9,1.4-.9,2.8.54,1.4.54,2.8-.28,1.4-.28,2.8-.04,1.4-.04,2.8.61,1.4.61,2.8-.22,1.4-.22,2.8-.47,1.4-.47,2.8.39,1.4.39,2.8.4,1.4.4,2.8-.47,1.4-.47,2.8.31,1.4.31,2.8-.45,1.4-.45,2.8-.05,1.4-.05,2.8c0,.85.18,1.98-.38,2.54s-1.68.78-2.54.78Z"/>
  <path class="cls-2" d="M114.21,116.8c-1.4,0-1.4-.16-2.79-.16s-1.4.4-2.8.4-1.4-.75-2.79-.75-1.4.3-2.8.3-1.4.17-2.8.17-1.4-.45-2.8-.45-1.4-.21-2.8-.21-1.4.17-2.8.17-1.4-.12-2.8-.12-1.4.25-2.8.25-1.4.46-2.8.46-1.4-.5-2.8-.5-1.4-.25-2.8-.25-1.4.59-2.8.59-1.4.25-2.8.25-1.4-.31-2.8-.31c-.85,0-1.94-.1-2.5-.66s-1.01-1.65-1.01-2.5c0-1.4.9-1.4.9-2.79s-.25-1.4-.25-2.8-.62-1.4-.62-2.79.63-1.4.63-2.8-.39-1.4-.39-2.8.05-1.4.05-2.8-.16-1.4-.16-2.8.12-1.4.12-2.8-.12-1.4-.12-2.8-.15-1.4-.15-2.8.24-1.4.24-2.8,0-1.4,0-2.8.48-1.4.48-2.8.15-1.4.15-2.8-.22-1.4-.22-2.8-.06-1.4-.06-2.8c0-.85.22-1.58.78-2.14s1.29-.66,2.14-.66c1.4,0,1.4.1,2.79.1s1.4.09,2.8.09,1.4-.89,2.79-.89,1.4.29,2.8.29,1.4.32,2.8.32,1.4.28,2.8.28,1.4-.75,2.8-.75,1.4.14,2.8.14,1.4-.19,2.8-.19,1.4.22,2.8.22,1.4.21,2.8.21,1.4-.11,2.8-.11,1.4-.28,2.8-.28,1.4.03,2.8.03,1.4.4,2.8.4,1.4.02,2.8.02c.85,0,1.85-.03,2.41.53s.19,1.56.19,2.41c0,1.4.18,1.4.18,2.79s.39,1.4.39,2.8.37,1.4.37,2.79-.9,1.4-.9,2.8.54,1.4.54,2.8-.28,1.4-.28,2.8-.04,1.4-.04,2.8.61,1.4.61,2.8-.22,1.4-.22,2.8-.47,1.4-.47,2.8.39,1.4.39,2.8.4,1.4.4,2.8-.47,1.4-.47,2.8.31,1.4.31,2.8-.45,1.4-.45,2.8-.05,1.4-.05,2.8c0,.85.18,1.98-.38,2.54s-1.68.78-2.54.78Z"/>
</svg>